<svg width="20" height="18" viewBox="0 0 20 18" fill="none" xmlns="http://www.w3.org/2000/svg">
<path d="M16.1197 15.3638C19.4997 11.8491 19.4997 6.15064 16.1197 2.63592C12.7398 -0.878801 7.25973 -0.878802 3.87976 2.63592C0.499779 6.15064 0.499779 11.8491 3.87976 15.3638C7.25973 18.8786 12.7398 18.8786 16.1197 15.3638Z" fill="url(#paint0_radial_4003_4594)"/>
<path d="M10.854 12.8513C10.7003 12.7151 10.3996 12.8916 10.2612 13.2599C10.2612 13.2599 10.6462 13.2439 10.7771 13.2036C10.9081 13.1634 11.0083 12.9875 10.854 12.8513Z" fill="#242424"/>
<path d="M9.14576 12.8519C8.99201 12.9881 9.09166 13.164 9.22263 13.2042C9.35361 13.2445 9.73855 13.2605 9.73855 13.2605C9.60018 12.8922 9.29951 12.7163 9.14576 12.8519Z" fill="#242424"/>
<path d="M12.4668 15.2181C12.403 15.2844 12.0898 15.2311 11.694 15.1636C11.3154 15.0991 10.7972 15.0109 10.3496 14.9824C9.68562 14.9404 9.06379 15.0351 8.32009 15.1636C8.02626 15.2145 7.79393 15.2542 7.68858 15.2513C7.61797 15.2495 7.51091 15.2465 7.50351 15.0789C7.49611 14.9054 7.92262 13.9432 9.99198 13.8651C12.1445 13.9468 12.6678 14.9653 12.4668 15.2181Z" fill="#242424"/>
<path d="M16.0064 9.12496C15.8537 9.64723 15.1237 10.2595 14.8834 10.4608C15.1602 11.8648 13.7719 13.058 12.9866 12.4498C12.6501 12.1887 12.5942 11.7967 12.5572 11.5368C12.174 11.5978 11.9679 11.5794 12.0066 11.4882C12.0772 11.32 15.7063 9.11134 16.0098 9.05212C16.0086 9.07403 16.0115 9.10364 16.0069 9.12555" fill="#242424"/>
<path d="M7.94657 11.5368C7.92948 11.5539 7.84065 11.606 7.40787 11.5368C7.2211 12.9425 6.09189 12.8353 5.48145 12.0235C5.32029 11.8091 4.9604 11.2271 5.10447 10.4614C4.85506 10.2488 4.09542 9.60163 3.99121 9.05923C3.99406 9.05686 3.99804 9.05449 4.00089 9.05212C4.05385 9.06278 8.13391 11.3443 7.94714 11.5374" fill="#242424"/>
<path style="mix-blend-mode:overlay" opacity="0.5" d="M9.43713 8.70984C12.2382 7.07671 13.7211 4.09408 12.7496 2.04467C11.7775 -0.00533426 8.71906 -0.344041 5.9174 1.28672C3.11687 2.91867 1.63347 5.90308 2.60494 7.95249C3.57755 10.0025 6.63603 10.3412 9.43713 8.71044V8.70984Z" fill="url(#paint1_radial_4003_4594)"/>
<path style="mix-blend-mode:overlay" opacity="0.3" d="M17.2569 12.4344C18.2153 12.9289 17.5394 14.4827 15.7462 15.9091C13.9542 17.3344 11.7254 18.0906 10.7659 17.5991C9.80863 17.1065 10.4846 15.5515 12.2766 14.125C14.0703 12.6991 16.2997 11.943 17.2569 12.4344Z" fill="url(#paint2_radial_4003_4594)"/>
<path d="M19.4809 5.55903C19.5903 5.2446 19.5897 4.92069 19.5265 4.6187C19.8505 4.30368 20.0117 3.82286 19.9991 3.37461C19.9673 2.34487 19.3215 1.42941 18.3893 1.08538C17.9822 0.936748 17.493 0.952143 17.1069 1.17953C16.6622 0.913062 16.0922 0.822464 15.6412 1.12268C15.119 1.46435 15.0097 2.18972 15.2141 2.74752C15.3041 3.02346 15.4743 3.26091 15.656 3.47409C15.4288 3.76305 15.2215 4.06741 15.0427 4.3925C14.9282 4.60271 14.8235 4.82003 14.7483 5.05926C14.742 5.07939 14.7449 5.10248 14.758 5.12025C14.7796 5.14985 14.8201 5.15578 14.8485 5.13387C15.0421 4.98287 15.2061 4.80937 15.361 4.62936C15.816 4.07807 16.2072 3.47112 16.4595 2.78897C16.4811 2.73213 16.4099 2.67884 16.365 2.71851C16.177 2.87365 16.0136 3.04774 15.8576 3.22716C15.8433 3.24374 15.8297 3.26091 15.8154 3.27809C15.7761 3.20762 15.738 3.13834 15.7067 3.07202C15.4595 2.58291 15.4385 1.70239 16.0728 1.5656C16.3695 1.50935 16.6616 1.65206 16.9002 1.86878L17.0876 2.04169L17.325 1.86878C17.5625 1.6864 17.8728 1.69055 18.1513 1.80069C18.7498 2.02925 19.2332 2.72917 19.2543 3.39059C19.2663 3.69673 19.1746 3.99754 18.9383 4.174L18.6985 4.36526L18.8016 4.61278C18.9901 5.0332 18.9588 5.67509 18.452 5.8095C18.0926 5.91017 17.6303 5.6893 17.3501 5.40566C17.3023 5.35651 17.2521 5.30085 17.2009 5.24282C17.4321 5.1392 17.6576 5.02017 17.8728 4.8751C17.9229 4.84312 17.8968 4.75608 17.8375 4.75963C17.5972 4.76733 17.3666 4.80523 17.1388 4.85141C16.6844 4.9503 16.2414 5.08649 15.8154 5.27894C14.1806 6.05583 16.0768 5.68634 16.6035 5.4779C16.7226 5.43645 16.8399 5.39263 16.9566 5.34645C17.0056 5.43586 17.0557 5.52409 17.1155 5.61469C17.325 5.91727 17.6132 6.16124 17.9605 6.28618C18.567 6.51712 19.2685 6.21334 19.4815 5.55962L19.4809 5.55903Z" fill="#020202"/>
<path d="M17.9046 3.27693C17.9365 3.23015 17.8898 3.16206 17.8362 3.17923C17.6557 3.23074 17.4934 3.30832 17.3363 3.39299C17.0254 3.56708 16.7361 3.77315 16.481 4.02777C15.5243 5.02139 16.7799 4.37832 17.1535 4.06093C17.4376 3.83532 17.7007 3.59195 17.9046 3.27752V3.27693Z" fill="#020202"/>
<path d="M0.518384 5.55929C0.40905 5.24486 0.40962 4.92096 0.472828 4.61896C0.148815 4.30394 -0.0123378 3.82312 0.000189958 3.37487C0.0320788 2.34513 0.677828 1.43027 1.61001 1.08623C2.01716 0.937602 2.50631 0.952998 2.89239 1.18038C3.33713 0.913916 3.90714 0.823318 4.35814 1.12354C4.88032 1.4652 4.98966 2.19058 4.78522 2.74838C4.69525 3.02432 4.52499 3.26177 4.34334 3.47494C4.57054 3.76391 4.77782 4.06827 4.95663 4.39336C5.07109 4.60357 5.17586 4.82088 5.25103 5.06011C5.25729 5.08024 5.25445 5.10334 5.24135 5.1211C5.21971 5.15071 5.17928 5.15663 5.15081 5.13472C4.9572 4.98372 4.7932 4.81023 4.63831 4.63021C4.18332 4.07893 3.79212 3.47198 3.53985 2.78983C3.51821 2.73298 3.58939 2.67969 3.63438 2.71936C3.8223 2.87451 3.98573 3.0486 4.14175 3.22802C4.15599 3.2446 4.16966 3.26177 4.18389 3.27894C4.22318 3.20848 4.26134 3.13919 4.29266 3.07287C4.53979 2.58376 4.56086 1.70324 3.9265 1.56646C3.62982 1.51021 3.3377 1.65291 3.0991 1.86964L2.91176 2.04254L2.6743 1.86964C2.43684 1.68726 2.12649 1.6914 1.84803 1.80154C1.24955 2.03011 0.766092 2.73002 0.745022 3.39145C0.733064 3.69759 0.824744 3.9984 1.06106 4.17485L1.3008 4.36612L1.19773 4.61363C1.00924 5.03406 1.04056 5.67594 1.54737 5.81036C1.90669 5.91102 2.36908 5.69015 2.64924 5.40652C2.69708 5.35737 2.74719 5.30171 2.79844 5.24368C2.56724 5.14005 2.34174 5.02103 2.12649 4.87595C2.07638 4.84398 2.10258 4.75693 2.1618 4.76049C2.4021 4.76818 2.63273 4.80608 2.86051 4.85227C3.31492 4.95116 3.75795 5.08735 4.18389 5.2798C5.81877 6.05669 3.92252 5.68719 3.39578 5.47876C3.27677 5.43731 3.15946 5.39349 3.04273 5.3473C2.99376 5.43671 2.94364 5.52494 2.88385 5.61554C2.6743 5.91813 2.38616 6.16209 2.0388 6.28703C1.43234 6.51797 0.730786 6.2142 0.517814 5.56047L0.518384 5.55929Z" fill="#020202"/>
<path d="M2.09439 3.27687C2.0625 3.23009 2.1092 3.16199 2.16273 3.17917C2.34324 3.23068 2.50553 3.30825 2.6627 3.39293C2.97361 3.56702 3.26289 3.77309 3.518 4.02771C4.47467 5.02133 3.21904 4.37826 2.84549 4.06087C2.56134 3.83526 2.29825 3.59189 2.09439 3.27746V3.27687Z" fill="#020202"/>
<defs>
<radialGradient id="paint0_radial_4003_4594" cx="0" cy="0" r="1" gradientUnits="userSpaceOnUse" gradientTransform="translate(7.41049 2.12552) scale(16.933 17.608)">
<stop stop-color="#FFCAAB"/>
<stop offset="0.2" stop-color="#FF7C2C"/>
<stop offset="0.86" stop-color="#C40606"/>
<stop offset="1" stop-color="#FF4E0E"/>
</radialGradient>
<radialGradient id="paint1_radial_4003_4594" cx="0" cy="0" r="1" gradientUnits="userSpaceOnUse" gradientTransform="translate(4.99158 -0.811475) rotate(64.6376) scale(4.1177 5.84571)">
<stop stop-color="white"/>
<stop offset="0.1" stop-color="white" stop-opacity="0.85"/>
<stop offset="0.29" stop-color="white" stop-opacity="0.59"/>
<stop offset="0.47" stop-color="white" stop-opacity="0.38"/>
<stop offset="0.63" stop-color="white" stop-opacity="0.22"/>
<stop offset="0.78" stop-color="white" stop-opacity="0.1"/>
<stop offset="0.91" stop-color="white" stop-opacity="0.03"/>
<stop offset="1" stop-color="white" stop-opacity="0"/>
</radialGradient>
<radialGradient id="paint2_radial_4003_4594" cx="0" cy="0" r="1" gradientUnits="userSpaceOnUse" gradientTransform="translate(67.8305 -27.071) rotate(-38.4961) scale(4.15357 1.77108)">
<stop stop-color="white"/>
<stop offset="0.1" stop-color="white" stop-opacity="0.85"/>
<stop offset="0.29" stop-color="white" stop-opacity="0.59"/>
<stop offset="0.47" stop-color="white" stop-opacity="0.38"/>
<stop offset="0.63" stop-color="white" stop-opacity="0.22"/>
<stop offset="0.78" stop-color="white" stop-opacity="0.1"/>
<stop offset="0.91" stop-color="white" stop-opacity="0.03"/>
<stop offset="1" stop-color="white" stop-opacity="0"/>
</radialGradient>
</defs>
</svg>
