<svg width="80" height="31" viewBox="0 0 80 31" fill="none" xmlns="http://www.w3.org/2000/svg">
<path fillRule="evenodd" clipRule="evenodd" d="M53.8644 0H74.4565C77.5055 0 80 2.44105 80 5.42464V25.5754C80 28.559 77.5055 31 74.4565 31H53.8644C50.8154 31 48.3209 28.559 48.3209 25.5754V5.42464C48.3209 2.44105 50.8154 0 53.8644 0Z" fill="#FAFAFA"/>
<path fillRule="evenodd" clipRule="evenodd" d="M53.3501 17.7907C53.3501 20.3154 55.4613 22.3992 58.0409 22.3992H58.5706H58.9902C60.0243 22.3992 60.8702 21.5714 60.8702 20.5595V20.2692V13.2004H58.0409C55.4622 13.2004 53.3501 15.2661 53.3501 17.7907Z" fill="#236CFF"/>
<path fillRule="evenodd" clipRule="evenodd" d="M66.5094 8.60107C68.5775 8.60107 70.2694 10.2571 70.2694 12.2805V13.2004H70.2706C72.8557 13.2004 74.9707 15.2701 74.9707 17.7998C74.9707 20.3294 72.8554 22.3992 70.2706 22.3992H66.1606H65.5981H64.6292C63.5953 22.3992 62.7493 21.5714 62.7493 20.5595V19.5765V19.2501V12.2805C62.7493 10.2569 64.4412 8.60107 66.5094 8.60107Z" fill="#0C111D"/>
<path fillRule="evenodd" clipRule="evenodd" d="M0.000167847 9.05213V7.21034H5.58929V9.05213H0.000167847ZM41.4019 18.2606V20.1019H43.284V18.2606H41.4019ZM40.4608 14.577C40.9787 14.577 41.4021 14.1626 41.4021 13.6559H41.4019V7.29557H43.284V13.6559C43.284 15.1754 42.0136 16.4185 40.4608 16.4185H36.6971V20.1019H34.8151V16.4185H31.0514V16.4186C29.4986 16.4186 28.2283 15.1754 28.2283 13.6561H28.2285L28.2283 13.6559V11.3547C28.2283 9.0762 30.1335 7.21116 32.4628 7.21116C34.7919 7.21116 36.6971 9.07587 36.6971 11.3547V14.577H40.4608ZM31.0512 14.577L31.0514 14.5768H34.8151V11.355C34.8151 10.0888 33.7566 9.05295 32.4628 9.05295H32.4626C31.1686 9.05295 30.1103 10.0888 30.1103 11.355V13.6559L30.1101 13.6561C30.1101 14.1629 30.5336 14.577 31.0514 14.5772L31.0512 14.577ZM9.37176 14.577C9.88963 14.577 10.313 14.1626 10.313 13.6559L10.3128 13.6558V7.29541H12.195V13.6558C12.195 15.1753 10.9245 16.4183 9.37176 16.4183H0.000167847V14.5767H9.37176V14.5768V14.577ZM14.113 13.6559L14.1131 13.6561H14.1128C14.1128 15.1756 15.3832 16.4186 16.936 16.4186H20.6998V20.102H22.5817V16.4186H23.523C25.0758 16.4186 26.3462 15.1754 26.3462 13.6561V2.60669H24.4642V13.6561H24.4644C24.4644 14.1627 24.041 14.5772 23.5231 14.5772L22.5819 14.577V11.3547C22.5819 9.07587 20.6765 7.21116 18.3476 7.21116C16.0184 7.21116 14.1131 9.0762 14.1131 11.3547V13.6559H14.113ZM15.9948 13.6561L15.9949 13.6559V11.355C15.9949 10.0888 17.0533 9.05295 18.3473 9.05295H18.3474C19.6413 9.05295 20.6998 10.0888 20.6998 11.355V14.5768H16.936L16.9358 14.577C16.4181 14.577 15.9948 14.1627 15.9948 13.6559V13.6561Z" fill="#FAFAFA"/>
<path d="M16.8332 26.9518V23.0166H17.3481V26.9907H16.8332V26.9516V26.9518ZM2.14225 26.4888H3.08012C3.34748 26.4888 3.59092 26.596 3.7673 26.7686C3.94352 26.941 4.05319 27.1791 4.05319 27.4411C4.05319 27.7028 3.94352 27.9409 3.76747 28.1135C3.59108 28.2861 3.34748 28.3934 3.08012 28.3934H1.11493C0.806966 28.3934 0.52815 28.2713 0.326661 28.0739C0.124835 27.8766 0 27.6038 0 27.3026V25.7376H0.51383V27.3026C0.51383 27.465 0.581218 27.6122 0.689712 27.7187C0.796353 27.823 0.943258 27.8885 1.10566 27.8908H3.07944C3.2058 27.8908 3.32052 27.8402 3.40391 27.7587C3.48714 27.6775 3.53886 27.565 3.53886 27.4414C3.53886 27.3177 3.48714 27.2055 3.40391 27.124C3.32069 27.0426 3.2058 26.992 3.07944 26.992H1.62825V25.9001C1.62825 25.5991 1.75309 25.3263 1.95491 25.1289C2.15657 24.9314 2.43539 24.8093 2.74318 24.8093H3.58266V25.3119H2.74318C2.57707 25.3119 2.4268 25.3777 2.3183 25.484C2.20947 25.5904 2.14208 25.7376 2.14208 25.9001V26.4892L2.14225 26.4888ZM16.0436 24.8503V25.899C16.0436 26.2002 15.9188 26.473 15.717 26.6703C15.5155 26.8677 15.2367 26.9898 14.9287 26.9898H6.28928C6.16731 26.9898 6.04955 26.9705 5.93937 26.9349C5.85008 26.9061 5.76602 26.8665 5.68835 26.8177V27.3024C5.68835 27.6036 5.56352 27.8764 5.36186 28.0738C5.16003 28.2711 4.88139 28.3933 4.57343 28.3933H4.09952V27.8905H4.57343C4.73954 27.8905 4.88981 27.8247 4.99847 27.7183C5.1073 27.6118 5.17469 27.4648 5.17469 27.3022V24.8088H5.68835V25.8988C5.68835 26.0614 5.75557 26.2084 5.86423 26.3147C5.9729 26.4212 6.12334 26.487 6.28945 26.487H14.9289C15.095 26.487 15.2454 26.4212 15.3541 26.3149C15.4629 26.2086 15.5301 26.0614 15.5301 25.8988V24.8112H16.0438V24.8501L16.0436 24.8503ZM24.3038 25.8998C24.3038 26.0622 24.3712 26.2094 24.4801 26.3157C24.5858 26.4194 24.7311 26.4845 24.892 26.4878H27.1274C27.2883 26.4845 27.4335 26.4193 27.5393 26.3159C27.6479 26.2094 27.7153 26.0623 27.7153 25.8998C27.7153 25.7374 27.6479 25.5902 27.5394 25.484C27.4306 25.3775 27.2803 25.3117 27.1142 25.3117H25.8864L25.687 24.8404L27.216 23.3442L27.578 23.6985L26.4415 24.8106H27.1144C27.4222 24.8106 27.7012 24.9324 27.9028 25.1296C28.1047 25.3266 28.2295 25.5989 28.2295 25.9C28.2295 26.2013 28.1047 26.474 27.9028 26.6715C27.701 26.8688 27.4224 26.991 27.1144 26.991H24.9053C24.7269 26.991 24.5584 26.9499 24.409 26.8771C24.2693 26.809 24.1461 26.7129 24.0474 26.5965C23.9485 26.7129 23.8256 26.8092 23.6857 26.8771C23.5363 26.9498 23.3677 26.991 23.1894 26.991H20.3878C20.08 26.991 19.8012 26.8688 19.5995 26.6715C19.3979 26.4742 19.273 26.2013 19.273 25.9V24.8116H19.7867V25.9C19.7867 26.0625 19.8541 26.2097 19.9626 26.3159C20.0712 26.4224 20.2217 26.4882 20.3878 26.4882H23.1894C23.3554 26.4882 23.5058 26.4224 23.6145 26.3161C23.7233 26.2096 23.7905 26.0625 23.7905 25.9V24.8116H24.3042V25.9L24.3038 25.8998ZM30.1335 26.4872H38.7374C38.9034 26.4872 39.0536 26.4214 39.1623 26.3151C39.271 26.2087 39.3383 26.0617 39.3383 25.8991L39.3385 25.0429H39.8522V25.8991C39.8522 26.0615 39.9196 26.2087 40.0281 26.3152C40.1369 26.4216 40.2872 26.4874 40.4531 26.4874C40.6192 26.4874 40.7695 26.4214 40.8783 26.3152C40.9868 26.2089 41.0542 26.0617 41.0542 25.8991V25.0429H41.568V25.8991C41.568 26.0617 41.6352 26.2087 41.7439 26.3151C41.8527 26.4216 42.003 26.4874 42.1691 26.4874C42.3351 26.4874 42.4855 26.4214 42.5943 26.3152C42.7028 26.2089 42.7702 26.0617 42.7702 25.8991V24.8091H43.284V25.8991C43.284 26.2003 43.1592 26.4732 42.9576 26.6705C42.7559 26.8678 42.4771 26.99 42.1693 26.99C41.9911 26.99 41.8224 26.949 41.673 26.8762C41.5333 26.8082 41.4102 26.7121 41.3115 26.5957C41.2126 26.7122 41.0894 26.8083 40.9497 26.8762C40.8003 26.949 40.6317 26.99 40.4534 26.99C40.2754 26.99 40.1066 26.949 39.9571 26.8762C39.8175 26.8082 39.6943 26.7121 39.5956 26.5957C39.4967 26.7122 39.3736 26.8082 39.2339 26.8762C39.0845 26.949 38.9158 26.99 38.7376 26.99H30.1337C30.0114 26.99 29.8938 26.9707 29.7836 26.9351C29.6945 26.9063 29.6101 26.8667 29.5324 26.8179V27.3026C29.5324 27.6038 29.4076 27.8766 29.2059 28.0739C29.0043 28.2713 28.7255 28.3934 28.4177 28.3934H27.9438V27.8906H28.4177C28.5836 27.8906 28.7341 27.8247 28.8427 27.7185C28.9514 27.612 29.0186 27.465 29.0186 27.3024V24.8089H29.5323V25.899C29.5323 26.0615 29.5997 26.2086 29.7083 26.3149C29.817 26.4214 29.9674 26.4872 30.1335 26.4872ZM41.9629 24.2349H40.6199V23.7181H41.4745V23.2791H42.0028V24.2349H41.9629ZM21.1368 24.3724H22.4798V24.8894H21.0969V24.3724H21.1368ZM15.5687 27.8764H16.0438V28.3934H15.529V27.8764H15.5689H15.5687Z" fill="#FAFAFA"/>
</svg>
