<svg width="24" height="24" viewBox="0 0 24 24" fill="none" xmlns="http://www.w3.org/2000/svg">
<path d="M19.6588 12.4466C19.5398 12.4476 19.4251 12.4023 19.339 12.3204L19.0618 12.0432L18.2083 11.1897V12.3968V18.7084C18.2083 19.0841 18.059 19.4444 17.7933 19.7101C17.5277 19.9758 17.1673 20.125 16.7916 20.125H13.9166C13.795 20.125 13.6785 20.0768 13.5925 19.9908C13.5066 19.9048 13.4583 19.7883 13.4583 19.6667V16.7917V16.2917H12.9583H11.0416H10.5416V16.7917V19.6667C10.5416 19.7883 10.4933 19.9048 10.4074 19.9908C10.3214 20.0768 10.2048 20.125 10.0833 20.125H7.20828C6.83255 20.125 6.47222 19.9758 6.20654 19.7101C5.94086 19.4444 5.79161 19.0841 5.79161 18.7084V12.3968V11.1897L4.93806 12.0432L4.6609 12.3204C4.57474 12.4023 4.46006 12.4476 4.34107 12.4466C4.2209 12.4455 4.10594 12.3973 4.02096 12.3124C3.93598 12.2274 3.88778 12.1124 3.88674 11.9922C3.8857 11.8733 3.93098 11.7586 4.01292 11.6724L5.92595 9.75939L11.6759 4.00944C11.6759 4.00942 11.6759 4.0094 11.676 4.00938C11.7619 3.92349 11.8784 3.87524 11.9999 3.87524C12.1214 3.87524 12.238 3.92349 12.3239 4.00938C12.3239 4.0094 12.324 4.00942 12.324 4.00944L18.0739 9.75939L19.987 11.6724C20.0689 11.7586 20.1142 11.8733 20.1131 11.9922C20.1121 12.1124 20.0639 12.2274 19.9789 12.3124C19.8939 12.3973 19.779 12.4455 19.6588 12.4466Z" stroke="#ADADAD"/>
</svg>
