<svg width="360" height="78" viewBox="0 0 360 78" fill="none" xmlns="http://www.w3.org/2000/svg">
<g filter="url(#filter0_d_4208_2781)">
<path d="M0 38C0 33.5817 3.58172 30 8 30H352C356.418 30 360 33.5817 360 38V78H0V38Z" fill="white" shape-rendering="crispEdges"/>
<path fillRule="evenodd" clipRule="evenodd" d="M67.3861 43.2106C67.7472 42.9298 68.2528 42.9298 68.6139 43.2106L77.6139 50.2106C77.8575 50.4001 78 50.6914 78 51V62C78 62.7957 77.6839 63.5587 77.1213 64.1213C76.5587 64.6839 75.7957 65 75 65H61C60.2043 65 59.4413 64.6839 58.8787 64.1213C58.3161 63.5587 58 62.7957 58 62V51C58 50.6914 58.1425 50.4001 58.3861 50.2106L67.3861 43.2106ZM60 51.4891V62C60 62.2652 60.1054 62.5196 60.2929 62.7071C60.4804 62.8946 60.7348 63 61 63H75C75.2652 63 75.5196 62.8946 75.7071 62.7071C75.8946 62.5196 76 62.2652 76 62V51.4891L68 45.2669L60 51.4891Z" fill="#236CFF"/>
<path fillRule="evenodd" clipRule="evenodd" d="M64 54C64 53.4477 64.4477 53 65 53H71C71.5523 53 72 53.4477 72 54V64C72 64.5523 71.5523 65 71 65C70.4477 65 70 64.5523 70 64V55H66V64C66 64.5523 65.5523 65 65 65C64.4477 65 64 64.5523 64 64V54Z" fill="#236CFF"/>
<rect x="112.5" y="10" width="135" height="52" rx="26" fill="#236CFF"/>
<rect x="112.5" y="10" width="135" height="52" rx="26" stroke="white" stroke-width="4"/>
<path d="M167.882 45.128C167.826 44.624 167.751 43.6907 167.658 42.328C167.565 40.9747 167.518 39.7473 167.518 38.646C167.518 38.2447 167.523 37.9507 167.532 37.764C167.551 37.1853 167.737 36.714 168.092 36.35C168.447 35.9767 168.89 35.79 169.422 35.79C169.497 35.79 169.599 35.7993 169.73 35.818C170.094 34.9967 170.528 34.362 171.032 33.914C171.536 33.466 172.063 33.242 172.614 33.242C173.137 33.242 173.594 33.41 173.986 33.746C174.387 34.082 174.691 34.516 174.896 35.048C175.101 35.58 175.204 36.1353 175.204 36.714C175.204 37.2833 175.101 37.806 174.896 38.282C174.7 38.7487 174.401 39.108 174 39.36C173.776 39.5 173.51 39.57 173.202 39.57C172.819 39.57 172.334 39.4627 171.746 39.248C171.158 39.024 170.407 38.6693 169.492 38.184C169.436 38.1653 169.408 38.184 169.408 38.24C169.389 39.5187 169.455 40.8953 169.604 42.37C169.753 43.8447 169.833 44.6147 169.842 44.68L167.882 45.128ZM173.426 37.4C173.566 37.288 173.636 37.0873 173.636 36.798C173.636 36.4433 173.538 36.112 173.342 35.804C173.146 35.496 172.889 35.342 172.572 35.342C172.199 35.342 171.783 35.7573 171.326 36.588C172.269 37.1573 172.917 37.442 173.272 37.442C173.337 37.442 173.389 37.428 173.426 37.4ZM179.602 39.5C178.557 39.5 177.796 39.1967 177.32 38.59C176.844 37.974 176.602 37.0547 176.592 35.832C176.555 33.116 176.42 30.96 176.186 29.364L178.118 28.93C178.23 29.742 178.314 30.806 178.37 32.122C178.436 33.4287 178.468 34.6327 178.468 35.734C178.468 36.1073 178.501 36.3967 178.566 36.602C178.632 36.798 178.744 36.938 178.902 37.022C179.061 37.106 179.294 37.148 179.602 37.148H179.672L179.798 38.324L179.672 39.5H179.602ZM179.521 37.148H180.487C181.495 37.148 182.433 37.0547 183.301 36.868C184.169 36.672 185.103 36.3313 186.101 35.846L185.835 35.72L185.359 35.482C184.986 35.2953 184.608 35.1507 184.225 35.048C183.852 34.936 183.516 34.88 183.217 34.88C182.881 34.88 182.583 34.9687 182.321 35.146C182.069 35.3233 181.869 35.5193 181.719 35.734L180.417 34.768C181.145 33.3213 182.107 32.598 183.301 32.598C183.703 32.598 184.085 32.6633 184.449 32.794C184.823 32.9247 185.364 33.172 186.073 33.536C186.605 33.816 187.058 34.026 187.431 34.166C187.814 34.306 188.234 34.4227 188.691 34.516L188.761 36.644C188.519 36.7093 188.071 36.9287 187.417 37.302L186.885 37.582C185.915 38.086 185.089 38.4733 184.407 38.744C183.726 39.0147 183.04 39.206 182.349 39.318C181.659 39.43 180.851 39.4907 179.927 39.5H179.521V37.148ZM183.721 41.124C183.917 40.9187 184.118 40.718 184.323 40.522L184.785 40.984C185.401 41.6 185.709 41.908 185.709 41.908L184.323 43.308C184.323 43.308 184.015 43 183.399 42.384L182.923 41.908L183.721 41.124ZM189.974 39.416C190.03 38.828 190.058 38.0767 190.058 37.162C190.058 36.0513 190.02 34.8567 189.946 33.578C189.88 32.2993 189.801 31.3193 189.708 30.638L191.668 30.19C191.733 30.8713 191.794 31.8 191.85 32.976C191.906 34.1427 191.934 35.286 191.934 36.406C191.934 37.7593 191.892 38.828 191.808 39.612L189.974 39.416ZM188.252 29.182C188.429 28.7527 188.658 28.4213 188.938 28.188C189.218 27.9453 189.516 27.824 189.834 27.824C189.992 27.824 190.137 27.8473 190.268 27.894C190.408 27.9313 190.562 27.992 190.73 28.076C190.898 28.1507 191.028 28.2067 191.122 28.244C191.224 28.2813 191.332 28.3 191.444 28.3C191.593 28.3 191.747 28.2533 191.906 28.16C192.064 28.0667 192.195 27.9407 192.298 27.782L192.984 28.37C192.769 28.6967 192.531 28.9487 192.27 29.126C192.008 29.294 191.733 29.378 191.444 29.378C191.285 29.378 191.136 29.3593 190.996 29.322C190.865 29.2753 190.702 29.2053 190.506 29.112C190.394 29.0653 190.282 29.0233 190.17 28.986C190.058 28.9393 189.955 28.916 189.862 28.916C189.694 28.916 189.53 28.9813 189.372 29.112C189.213 29.2333 189.087 29.4013 188.994 29.616L188.252 29.182Z" fill="#FAFAFA"/>
<path fillRule="evenodd" clipRule="evenodd" d="M284.464 57.4645C285.402 56.5268 286.674 56 288 56H296C297.326 56 298.598 56.5268 299.536 57.4645C300.473 58.4021 301 59.6739 301 61V63C301 63.5523 300.552 64 300 64C299.448 64 299 63.5523 299 63V61C299 60.2044 298.684 59.4413 298.121 58.8787C297.559 58.3161 296.796 58 296 58H288C287.204 58 286.441 58.3161 285.879 58.8787C285.316 59.4413 285 60.2044 285 61V63C285 63.5523 284.552 64 284 64C283.448 64 283 63.5523 283 63V61C283 59.6739 283.527 58.4021 284.464 57.4645Z" fill="#94969C"/>
<path fillRule="evenodd" clipRule="evenodd" d="M292 46C290.343 46 289 47.3431 289 49C289 50.6569 290.343 52 292 52C293.657 52 295 50.6569 295 49C295 47.3431 293.657 46 292 46ZM287 49C287 46.2386 289.239 44 292 44C294.761 44 297 46.2386 297 49C297 51.7614 294.761 54 292 54C289.239 54 287 51.7614 287 49Z" fill="#94969C"/>
</g>
<defs>
<filter id="filter0_d_4208_2781" x="-6" y="0" width="372" height="82" filterUnits="userSpaceOnUse" color-interpolation-filters="sRGB">
<feFlood flood-opacity="0" result="BackgroundImageFix"/>
<feColorMatrix in="SourceAlpha" type="matrix" values="0 0 0 0 0 0 0 0 0 0 0 0 0 0 0 0 0 0 127 0" result="hardAlpha"/>
<feOffset dy="-2"/>
<feGaussianBlur stdDeviation="3"/>
<feComposite in2="hardAlpha" operator="out"/>
<feColorMatrix type="matrix" values="0 0 0 0 0 0 0 0 0 0 0 0 0 0 0 0 0 0 0.25 0"/>
<feBlend mode="normal" in2="BackgroundImageFix" result="effect1_dropShadow_4208_2781"/>
<feBlend mode="normal" in="SourceGraphic" in2="effect1_dropShadow_4208_2781" result="shape"/>
</filter>
</defs>
</svg>
