<svg width="24" height="24" viewBox="0 0 24 24" fill="none" xmlns="http://www.w3.org/2000/svg">
<path d="M10.1339 11.8651C10.1885 11.9196 10.2048 12.0016 10.1753 12.0729C10.1458 12.1441 10.0762 12.1906 9.99911 12.1906C9.92198 12.1906 9.85245 12.1441 9.82294 12.0729C9.79342 12.0016 9.80974 11.9196 9.86427 11.8651C9.93882 11.7908 10.0594 11.7908 10.1339 11.8651" stroke="#61646C" strokeWidth="1.5" strokeLinecap="round" strokeLinejoin="round"/>
<path d="M10.9996 17.0022H3.99668C3.46598 17.0024 2.95698 16.7916 2.58172 16.4163C2.20646 16.0411 1.9957 15.5321 1.99585 15.0014V8.99888C1.9957 8.46818 2.20646 7.95918 2.58172 7.58392C2.95698 7.20866 3.46598 6.9979 3.99668 6.99805H10.9996" stroke="#323232" strokeWidth="1.5" strokeLinecap="round" strokeLinejoin="round"/>
<path d="M6.13236 11.8651C6.1869 11.9196 6.20321 12.0016 6.1737 12.0729C6.14418 12.1441 6.07465 12.1906 5.99752 12.1906C5.9204 12.1906 5.85086 12.1441 5.82135 12.0729C5.79183 12.0016 5.80815 11.9196 5.86269 11.8651C5.93723 11.7908 6.05782 11.7908 6.13236 11.8651" stroke="#323232" strokeWidth="1.5" strokeLinecap="round" strokeLinejoin="round"/>
<rect x="14.0009" y="10.4995" width="8.00333" height="6.50271" rx="1.65" stroke="#323232" strokeWidth="1.5" strokeLinecap="round" strokeLinejoin="round"/>
<path d="M15.5309 10.4994V8.46918C15.5309 7.10414 16.6375 5.99756 18.0025 5.99756V5.99756C18.658 5.99756 19.2867 6.25796 19.7502 6.72148C20.2137 7.185 20.4741 7.81366 20.4741 8.46918V8.46918V10.5164" stroke="#323232" strokeWidth="1.5" strokeLinecap="round" strokeLinejoin="round"/>
</svg>
