<svg width="14" height="15" viewBox="0 0 14 15" fill="none" xmlns="http://www.w3.org/2000/svg">
<path d="M1 4.16667V2.83333C1 2.47971 1.14048 2.14057 1.39052 1.89052C1.64057 1.64048 1.97971 1.5 2.33333 1.5H3.66667M10.3333 1.5H11.6667C12.0203 1.5 12.3594 1.64048 12.6095 1.89052C12.8595 2.14057 13 2.47971 13 2.83333V4.16667M13 10.8333V12.1667C13 12.5203 12.8595 12.8594 12.6095 13.1095C12.3594 13.3595 12.0203 13.5 11.6667 13.5H10.3333M3.66667 13.5H2.33333C1.97971 13.5 1.64057 13.3595 1.39052 13.1095C1.14048 12.8594 1 12.5203 1 12.1667V10.8333M3.66667 7.5H10.3333" stroke="#FAFAFA" stroke-width="2" stroke-linecap="round" stroke-linejoin="round"/>
</svg>
