<svg width="20" height="21" viewBox="0 0 20 21" fill="none" xmlns="http://www.w3.org/2000/svg">
<path d="M1 5.5V3.5C1 2.96957 1.21071 2.46086 1.58579 2.08579C1.96086 1.71071 2.46957 1.5 3 1.5H5M15 1.5H17C17.5304 1.5 18.0391 1.71071 18.4142 2.08579C18.7893 2.46086 19 2.96957 19 3.5V5.5M19 15.5V17.5C19 18.0304 18.7893 18.5391 18.4142 18.9142C18.0391 19.2893 17.5304 19.5 17 19.5H15M5 19.5H3C2.46957 19.5 1.96086 19.2893 1.58579 18.9142C1.21071 18.5391 1 18.0304 1 17.5V15.5M5 10.5H15" stroke="#236CFF" stroke-width="2" stroke-linecap="round" stroke-linejoin="round"/>
</svg>
