<?xml version="1.0" encoding="utf-8"?>
<!-- Generator: Adobe Illustrator 27.5.0, SVG Export Plug-In . SVG Version: 6.00 Build 0)  -->
<svg version="1.1" id="Layer_1" xmlns="http://www.w3.org/2000/svg" xmlns:xlink="http://www.w3.org/1999/xlink" x="0px" y="0px"
	 viewBox="0 0 4975 4975" style="enable-background:new 0 0 4975 4975;" xml:space="preserve">
<g>
	<polygon style="fill:#A7A9AC;" points="1738.667,3760.333 1746,3756.333 1746,3747.333 1739,3753 	"/>
	<polygon style="fill:#6D6E71;" points="3630.166,3757.834 3620,3748.5 3619,3730.75 3630,3741.5 	"/>
	<path style="fill:none;" d="M3719.469,4320.193c-0.195-3.69-3.467-80.508-3.494-95.805
		C3716,4239.736,3719.273,4317.031,3719.469,4320.193z"/>
	<path style="fill:none;" d="M3465.294,2349.567c12.483-13.733,32.683-77.621,63.16-163.972
		c-59.812,87.079-104.234,147.292-129.811,172.862C3398.644,2358.457,3420.868,2398.45,3465.294,2349.567z"/>
	<polygon points="3629.748,3742.349 3630.166,3757.834 3661.75,3747 3662.117,3733.724 	"/>
	<path style="fill:#808285;" d="M2519.393,3816.236c0.035,0.018,0.071,0.035,0.107,0.053c-0.076-0.043-0.116-0.066-0.116-0.066
		v-0.065l-0.009,0.051l-802.011-126.728c-0.029,0.008-0.051,0.015-0.081,0.021c0.194,11.11,0.098,28.181,0.098,57.885
		c35.866,9.322,352.11,97.053,571.702,158.05c126.354-48.926,218.923-84.784,229.238-88.78
		C2519.004,3816.388,2519.393,3816.236,2519.393,3816.236z"/>
	<path style="fill:#C7CAD6;" d="M1902.277,3706.004c252.392,37.027,580.737,85.217,617.106,90.551v-0.355
		C2486.506,3791.375,2155.773,3742.86,1902.277,3706.004z"/>
	<path style="fill:#A7A9AC;" d="M2519.384,3816.157v-19.591c-52.344-7.387-790.811-109.804-794.89-110.379
		c-0.987,0.475-4.349,2.01-7.163,3.29l0.033,0.003l802.011,126.728L2519.384,3816.157z"/>
	<path style="fill:#414042;" d="M2590.325,3837.088c3.179,0.368,5.832,0.625,7.831,0.836l-1097.608,387.665
		c0,0,6.119,99.411,7.601,111.241c-0.098-0.026-0.208-0.059-0.308-0.086l0.016,0.232l1113.738-305.23l-0.073-2.047l-7.01-191.257
		C2605.991,3838.427,2597.914,3837.926,2590.325,3837.088z"/>
	<path style="fill:#0B0B0A;" d="M2519.5,3816.289c-0.036-0.018-0.072-0.035-0.107-0.053c0,0-0.389,0.151-1.071,0.42
		c0.638-0.246,0.999-0.385,0.999-0.385c0.638,0.33,1.273,0.645,1.91,0.964C2520.318,3816.754,2519.73,3816.422,2519.5,3816.289z"/>
	<path style="fill:#6D6E71;" d="M1500.548,4225.589l1097.608-387.665c-1.999-0.211-4.652-0.468-7.831-0.836
		c-37.044-4.092-62.3-16.26-69.095-19.853c-0.637-0.319-1.272-0.634-1.91-0.964c0,0-0.361,0.139-0.999,0.385
		c-10.315,3.996-102.885,39.854-229.238,88.78c-277.049,107.279-716.531,277.393-807.539,312.259c0,0,8.186,107.346,9.94,127.227
		c4.873,1.721,13.077,3.418,18.016,4.745c0.1,0.027-1.449-12.863-1.351-12.837
		C1507.333,4326.333,1500.548,4225.589,1500.548,4225.589z"/>
	<path style="fill:#414042;" d="M2701.016,3816.616c-0.089,0.063-0.177,0.126-0.289,0.203
		c9.309,3.512,121.588,45.876,269.031,101.501l659.824-175.805l32.369-8.625c0,0,0.006-4.64,0.014-11.689
		c0.022-21.323,0.059-64.72-0.013-68.745l-0.271,0.047L2701.016,3816.616z"/>
	<path style="fill:#1D1C1A;" d="M3661.951,3653.393c-0.023-0.004-0.048-0.006-0.071-0.01c0.024,0.01,0.048,0.02,0.071,0.03
		C3661.951,3653.407,3661.951,3653.398,3661.951,3653.393z"/>
	<path style="fill:#6D6E71;" d="M2701.016,3816.616l960.666-163.113l0.271-0.047l0.073-0.013c-0.024-0.01-0.049-0.021-0.074-0.03
		c-0.023-0.011-0.047-0.021-0.071-0.03c-6.551-2.707-12.793-5.202-12.793-5.202c-21.612,5.392-899.459,133.875-947.529,140.909
		v27.133C2701.558,3816.223,2701.363,3816.37,2701.016,3816.616z"/>
	<path style="fill:#58595B;" d="M3715.975,4224.389c-0.002-1.584,0.029-2.509,0.104-2.624l-1101.546-383.322
		c-0.007,0-0.014,0-0.021,0l7.01,191.257l0.073,1.982l1097.874,288.512C3719.273,4317.031,3716,4239.736,3715.975,4224.389z"/>
	<path style="fill:#A7A9AC;" d="M2614.923,3838.447c-0.132,0-0.259-0.004-0.391-0.005l1101.546,383.322
		c-0.074,0.115-0.105,1.04-0.104,2.624c0.027,15.297,3.299,92.114,3.494,95.805c0.026,0.09,0.054,0.143,0.077,0.119
		c0.309-0.285,16.858-17.641,17.833-18.809c-0.584-28.458-1.948-87.123-2.145-94.53c-17.979-6.67-464.819-175.228-765.477-288.653
		c-147.443-55.625-259.723-97.989-269.031-101.501C2695.65,3820.347,2667.057,3838.447,2614.923,3838.447z"/>
	<linearGradient id="SVGID_1_" gradientUnits="userSpaceOnUse" x1="2519.3838" y1="3796.748" x2="2701.5576" y2="3796.748">
		<stop  offset="0" style="stop-color:#D1D3D4"/>
		<stop  offset="0.2242" style="stop-color:#6E6E6E"/>
		<stop  offset="0.4303" style="stop-color:#FFFFFF"/>
		<stop  offset="0.6727" style="stop-color:#5E5E5E"/>
		<stop  offset="1" style="stop-color:#000000"/>
	</linearGradient>
	<path style="fill:url(#SVGID_1_);" d="M2519.384,3796.555v0.012c1.319,0.186,2.209,0.313,2.634,0.375
		C2521.467,3796.86,2520.581,3796.73,2519.384,3796.555z"/>
	
		<linearGradient id="SVGID_00000156558268559270339360000003844448178337635259_" gradientUnits="userSpaceOnUse" x1="2519.3838" y1="3436.0498" x2="2701.5576" y2="3436.0498">
		<stop  offset="0" style="stop-color:#D1D3D4"/>
		<stop  offset="0.2242" style="stop-color:#6E6E6E"/>
		<stop  offset="0.4303" style="stop-color:#FFFFFF"/>
		<stop  offset="0.6727" style="stop-color:#5E5E5E"/>
		<stop  offset="1" style="stop-color:#000000"/>
	</linearGradient>
	<path style="fill:url(#SVGID_00000156558268559270339360000003844448178337635259_);" d="M2622.328,3037.35
		c-34.117,0.969-68.49,1.275-102.944,1.004v757.846c1.755,0.258,2.677,0.393,2.677,0.393l-0.043,0.35
		c0.451,0.068,0.689,0.104,0.689,0.104l-2.538,14.596l-0.59,4.689c42.747,21.621,91.331,21.896,94.925,21.886l-0.058-1.571
		c10.835-0.786,20.501-1.83,28.878-2.94c15.792-3.562,31.184-8.309,41.947-11.901c1.081-0.841,2.292-1.879,3.537-3.113l-4.795,0.813
		c0,0,6.807-2.194,11.453-9.675c2.694-5.158,4.492-11.705,3.749-19.853c0,0,0.128-0.019,0.315-0.046
		c-0.014-0.188-0.004-0.353-0.023-0.54c0,0,0.696-0.102,2.05-0.3v-755.206C2675.336,3035.43,2648.914,3036.595,2622.328,3037.35z"/>
	<path style="fill:#C7CAD6;" d="M2519.384,3816.223c0,0,0.04,0.023,0.116,0.066c0.026,0.014,0.053,0.027,0.079,0.041l0.59-4.689
		l-0.785,4.517V3816.223z"/>
	
		<linearGradient id="SVGID_00000080909848209410818760000008908869956080704896_" gradientUnits="userSpaceOnUse" x1="2519.3838" y1="3813.9854" x2="2701.5576" y2="3813.9854">
		<stop  offset="0" style="stop-color:#D1D3D4"/>
		<stop  offset="0.2242" style="stop-color:#6E6E6E"/>
		<stop  offset="0.4303" style="stop-color:#FFFFFF"/>
		<stop  offset="0.6727" style="stop-color:#5E5E5E"/>
		<stop  offset="1" style="stop-color:#000000"/>
	</linearGradient>
	<path style="fill:url(#SVGID_00000080909848209410818760000008908869956080704896_);" d="M2519.384,3816.223
		c0,0,0.04,0.023,0.116,0.066c0.026,0.014,0.053,0.027,0.079,0.041l0.59-4.689l-0.785,4.517V3816.223z"/>
	<path style="fill:#C7CAD6;" d="M2522.061,3796.592c0,0-0.922-0.135-2.677-0.393v0.355c1.197,0.176,2.083,0.306,2.634,0.387
		L2522.061,3796.592z"/>
	
		<linearGradient id="SVGID_00000121276521535618985730000003445151689590892972_" gradientUnits="userSpaceOnUse" x1="2519.3838" y1="3796.5703" x2="2701.5576" y2="3796.5703">
		<stop  offset="0" style="stop-color:#D1D3D4"/>
		<stop  offset="0.2242" style="stop-color:#6E6E6E"/>
		<stop  offset="0.4303" style="stop-color:#FFFFFF"/>
		<stop  offset="0.6727" style="stop-color:#5E5E5E"/>
		<stop  offset="1" style="stop-color:#000000"/>
	</linearGradient>
	<path style="fill:url(#SVGID_00000121276521535618985730000003445151689590892972_);" d="M2522.061,3796.592
		c0,0-0.922-0.135-2.677-0.393v0.355c1.197,0.176,2.083,0.306,2.634,0.387L2522.061,3796.592z"/>
	<path style="fill:#DEE2ED;" d="M2520.169,3811.641l2.538-14.596c0,0-0.238-0.035-0.689-0.104c-0.425-0.063-1.314-0.189-2.634-0.375
		v19.591L2520.169,3811.641z"/>
	
		<linearGradient id="SVGID_00000087387900613764688700000015714522469544899204_" gradientUnits="userSpaceOnUse" x1="2519.3838" y1="3806.3618" x2="2701.5576" y2="3806.3618">
		<stop  offset="0" style="stop-color:#D1D3D4"/>
		<stop  offset="0.2242" style="stop-color:#6E6E6E"/>
		<stop  offset="0.4303" style="stop-color:#FFFFFF"/>
		<stop  offset="0.6727" style="stop-color:#5E5E5E"/>
		<stop  offset="1" style="stop-color:#000000"/>
	</linearGradient>
	<path style="fill:url(#SVGID_00000087387900613764688700000015714522469544899204_);" d="M2520.169,3811.641l2.538-14.596
		c0,0-0.238-0.035-0.689-0.104c-0.425-0.063-1.314-0.189-2.634-0.375v19.591L2520.169,3811.641z"/>
	<path style="fill:#0B0B0A;" d="M2521.23,3817.235c27.683,13.902,54.248,18.129,69.095,19.853
		c7.589,0.838,15.666,1.339,24.187,1.354v-0.007l-0.077-0.027c0.025-0.003,0.051-0.004,0.076-0.006l-0.007-0.187
		c-3.594,0.011-52.178-0.265-94.925-21.886c-0.026-0.014-0.053-0.027-0.079-0.041
		C2519.73,3816.422,2520.318,3816.754,2521.23,3817.235z"/>
	
		<linearGradient id="SVGID_00000000196085247373303940000007308994230420199847_" gradientUnits="userSpaceOnUse" x1="2519.3838" y1="3827.3657" x2="2701.5576" y2="3827.3657">
		<stop  offset="0" style="stop-color:#D1D3D4"/>
		<stop  offset="0.2242" style="stop-color:#6E6E6E"/>
		<stop  offset="0.4303" style="stop-color:#FFFFFF"/>
		<stop  offset="0.6727" style="stop-color:#5E5E5E"/>
		<stop  offset="1" style="stop-color:#000000"/>
	</linearGradient>
	<path style="fill:url(#SVGID_00000000196085247373303940000007308994230420199847_);" d="M2521.23,3817.235
		c27.683,13.902,54.248,18.129,69.095,19.853c7.589,0.838,15.666,1.339,24.187,1.354v-0.007l-0.077-0.027
		c0.025-0.003,0.051-0.004,0.076-0.006l-0.007-0.187c-3.594,0.011-52.178-0.265-94.925-21.886c-0.026-0.014-0.053-0.027-0.079-0.041
		C2519.73,3816.422,2520.318,3816.754,2521.23,3817.235z"/>
	<path style="fill:#39393B;" d="M2590.325,3837.088c-14.847-1.724-41.412-5.95-69.095-19.853
		C2528.025,3820.828,2553.281,3832.996,2590.325,3837.088z"/>
	
		<linearGradient id="SVGID_00000106845093091450405920000009890080829771393415_" gradientUnits="userSpaceOnUse" x1="2519.3838" y1="3827.1616" x2="2701.5576" y2="3827.1616">
		<stop  offset="0" style="stop-color:#D1D3D4"/>
		<stop  offset="0.2242" style="stop-color:#6E6E6E"/>
		<stop  offset="0.4303" style="stop-color:#FFFFFF"/>
		<stop  offset="0.6727" style="stop-color:#5E5E5E"/>
		<stop  offset="1" style="stop-color:#000000"/>
	</linearGradient>
	<path style="fill:url(#SVGID_00000106845093091450405920000009890080829771393415_);" d="M2590.325,3837.088
		c-14.847-1.724-41.412-5.95-69.095-19.853C2528.025,3820.828,2553.281,3832.996,2590.325,3837.088z"/>
	<path style="fill:#1D1C1A;" d="M2699.531,3789.93c-0.188,0.027-0.315,0.046-0.315,0.046c0.743,8.147-1.055,14.694-3.749,19.853
		C2698.257,3805.336,2700.246,3798.92,2699.531,3789.93z"/>
	
		<linearGradient id="SVGID_00000124854072490409648540000006189396126327534522_" gradientUnits="userSpaceOnUse" x1="2519.3838" y1="3799.8789" x2="2701.5576" y2="3799.8789">
		<stop  offset="0" style="stop-color:#D1D3D4"/>
		<stop  offset="0.2242" style="stop-color:#6E6E6E"/>
		<stop  offset="0.4303" style="stop-color:#FFFFFF"/>
		<stop  offset="0.6727" style="stop-color:#5E5E5E"/>
		<stop  offset="1" style="stop-color:#000000"/>
	</linearGradient>
	<path style="fill:url(#SVGID_00000124854072490409648540000006189396126327534522_);" d="M2699.531,3789.93
		c-0.188,0.027-0.315,0.046-0.315,0.046c0.743,8.147-1.055,14.694-3.749,19.853
		C2698.257,3805.336,2700.246,3798.92,2699.531,3789.93z"/>
	<path style="fill:#1D1C1A;" d="M2701.016,3816.616l-0.57,0.097c0.08,0.03,0.175,0.066,0.281,0.106
		C2700.839,3816.742,2700.927,3816.68,2701.016,3816.616z"/>
	
		<linearGradient id="SVGID_00000074431126306474222760000012694096780167893156_" gradientUnits="userSpaceOnUse" x1="2519.3838" y1="3816.7178" x2="2701.5576" y2="3816.7178">
		<stop  offset="0" style="stop-color:#D1D3D4"/>
		<stop  offset="0.2242" style="stop-color:#6E6E6E"/>
		<stop  offset="0.4303" style="stop-color:#FFFFFF"/>
		<stop  offset="0.6727" style="stop-color:#5E5E5E"/>
		<stop  offset="1" style="stop-color:#000000"/>
	</linearGradient>
	<path style="fill:url(#SVGID_00000074431126306474222760000012694096780167893156_);" d="M2701.016,3816.616l-0.57,0.097
		c0.08,0.03,0.175,0.066,0.281,0.106C2700.839,3816.742,2700.927,3816.68,2701.016,3816.616z"/>
	<path style="fill:#1D1C1A;" d="M2688.99,3818.658l-0.182,0.031c-1.245,1.234-2.456,2.272-3.537,3.113
		c6.906-2.306,11.904-4.135,13.883-4.87L2688.99,3818.658z"/>
	
		<linearGradient id="SVGID_00000168092240783531210230000014985484459551082128_" gradientUnits="userSpaceOnUse" x1="2519.3838" y1="3819.3677" x2="2701.5576" y2="3819.3677">
		<stop  offset="0" style="stop-color:#D1D3D4"/>
		<stop  offset="0.2242" style="stop-color:#6E6E6E"/>
		<stop  offset="0.4303" style="stop-color:#FFFFFF"/>
		<stop  offset="0.6727" style="stop-color:#5E5E5E"/>
		<stop  offset="1" style="stop-color:#000000"/>
	</linearGradient>
	<path style="fill:url(#SVGID_00000168092240783531210230000014985484459551082128_);" d="M2688.99,3818.658l-0.182,0.031
		c-1.245,1.234-2.456,2.272-3.537,3.113c6.906-2.306,11.904-4.135,13.883-4.87L2688.99,3818.658z"/>
	<path style="fill:#38393D;" d="M2699.531,3789.93c0.715,8.99-1.274,15.406-4.064,19.898c-4.646,7.48-11.453,9.675-11.453,9.675
		l4.795-0.813l0.182-0.031l10.164-1.726c0.611-0.228,0.938-0.353,0.938-0.353s0.124,0.047,0.353,0.133l0.57-0.097
		c0.348-0.246,0.542-0.394,0.542-0.394v-27.133c-1.354,0.198-2.05,0.3-2.05,0.3
		C2699.527,3789.577,2699.518,3789.741,2699.531,3789.93z"/>
	
		<linearGradient id="SVGID_00000116229794667596182080000011352775917716872863_" gradientUnits="userSpaceOnUse" x1="2519.3838" y1="3804.2964" x2="2701.5576" y2="3804.2964">
		<stop  offset="0" style="stop-color:#D1D3D4"/>
		<stop  offset="0.2242" style="stop-color:#6E6E6E"/>
		<stop  offset="0.4303" style="stop-color:#FFFFFF"/>
		<stop  offset="0.6727" style="stop-color:#5E5E5E"/>
		<stop  offset="1" style="stop-color:#000000"/>
	</linearGradient>
	<path style="fill:url(#SVGID_00000116229794667596182080000011352775917716872863_);" d="M2699.531,3789.93
		c0.715,8.99-1.274,15.406-4.064,19.898c-4.646,7.48-11.453,9.675-11.453,9.675l4.795-0.813l0.182-0.031l10.164-1.726
		c0.611-0.228,0.938-0.353,0.938-0.353s0.124,0.047,0.353,0.133l0.57-0.097c0.348-0.246,0.542-0.394,0.542-0.394v-27.133
		c-1.354,0.198-2.05,0.3-2.05,0.3C2699.527,3789.577,2699.518,3789.741,2699.531,3789.93z"/>
	<path style="fill:#7A7B80;" d="M2643.324,3833.704c-8.377,1.11-18.043,2.154-28.878,2.94l0.058,1.571l0.007,0.187
		C2623.597,3837.664,2633.537,3835.911,2643.324,3833.704z"/>
	
		<linearGradient id="SVGID_00000180351312679983616370000015862780723209387935_" gradientUnits="userSpaceOnUse" x1="2519.3838" y1="3836.0532" x2="2701.5576" y2="3836.0532">
		<stop  offset="0" style="stop-color:#D1D3D4"/>
		<stop  offset="0.2242" style="stop-color:#6E6E6E"/>
		<stop  offset="0.4303" style="stop-color:#FFFFFF"/>
		<stop  offset="0.6727" style="stop-color:#5E5E5E"/>
		<stop  offset="1" style="stop-color:#000000"/>
	</linearGradient>
	<path style="fill:url(#SVGID_00000180351312679983616370000015862780723209387935_);" d="M2643.324,3833.704
		c-8.377,1.11-18.043,2.154-28.878,2.94l0.058,1.571l0.007,0.187C2623.597,3837.664,2633.537,3835.911,2643.324,3833.704z"/>
	<path style="fill:#7A7B80;" d="M2614.512,3838.442c0.007,0,0.014,0,0.021,0l-0.021-0.007V3838.442z"/>
	
		<linearGradient id="SVGID_00000104686125223005969620000003419818973939056264_" gradientUnits="userSpaceOnUse" x1="2614.5117" y1="3838.439" x2="2614.5322" y2="3838.439">
		<stop  offset="0" style="stop-color:#D1D3D4"/>
		<stop  offset="0.2242" style="stop-color:#6E6E6E"/>
		<stop  offset="0.4303" style="stop-color:#FFFFFF"/>
		<stop  offset="0.6727" style="stop-color:#5E5E5E"/>
		<stop  offset="1" style="stop-color:#000000"/>
	</linearGradient>
	<path style="fill:url(#SVGID_00000104686125223005969620000003419818973939056264_);" d="M2614.512,3838.442
		c0.007,0,0.014,0,0.021,0l-0.021-0.007V3838.442z"/>
	<path style="fill:#D4DBE1;" d="M2614.511,3838.402c-0.025,0.002-0.051,0.003-0.076,0.006l0.077,0.027l0.021,0.007
		c0.132,0.001,0.259,0.005,0.391,0.005c52.134,0,80.728-18.101,85.804-21.628c-0.106-0.04-0.201-0.076-0.281-0.106
		c-0.229-0.086-0.353-0.133-0.353-0.133s-0.327,0.125-0.938,0.353c-1.979,0.735-6.977,2.564-13.883,4.87
		c-10.764,3.593-26.155,8.34-41.947,11.901C2633.537,3835.911,2623.597,3837.664,2614.511,3838.402z"/>
	
		<linearGradient id="SVGID_00000154390673221462519290000004567645591793128353_" gradientUnits="userSpaceOnUse" x1="2519.3838" y1="3827.5137" x2="2701.5576" y2="3827.5137">
		<stop  offset="0" style="stop-color:#D1D3D4"/>
		<stop  offset="0.2242" style="stop-color:#6E6E6E"/>
		<stop  offset="0.4303" style="stop-color:#FFFFFF"/>
		<stop  offset="0.6727" style="stop-color:#5E5E5E"/>
		<stop  offset="1" style="stop-color:#000000"/>
	</linearGradient>
	<path style="fill:url(#SVGID_00000154390673221462519290000004567645591793128353_);" d="M2614.511,3838.402
		c-0.025,0.002-0.051,0.003-0.076,0.006l0.077,0.027l0.021,0.007c0.132,0.001,0.259,0.005,0.391,0.005
		c52.134,0,80.728-18.101,85.804-21.628c-0.106-0.04-0.201-0.076-0.281-0.106c-0.229-0.086-0.353-0.133-0.353-0.133
		s-0.327,0.125-0.938,0.353c-1.979,0.735-6.977,2.564-13.883,4.87c-10.764,3.593-26.155,8.34-41.947,11.901
		C2633.537,3835.911,2623.597,3837.664,2614.511,3838.402z"/>
	<path style="fill:#EF4136;" d="M3398.644,2358.457c25.576-25.569,69.999-85.783,129.811-172.862
		c70.353-199.332,195.474-518.368,406.881-616.533c30.571-46.7,62.025-94.679,94.271-143.728
		c315.491-479.896,39.992-724.279,39.992-724.279C3707.688,305.117,2882.021,300.684,2338,382
		c-237.461,35.494-382.272,94.627-476.787,132.431c-311.049,124.412-328.806,613.192-182.172,924.234
		c146.632,311.041,484.329,782.042,577.641,875.354C2256.682,2314.019,3283.127,2362.911,3398.644,2358.457z"/>
	<path style="fill:#BE1E2D;" d="M2622.328,3037.35c26.586-0.755,53.008-1.92,79.229-3.466
		c436.548-25.733,816.849-157.983,945.91-293.296c275.484-288.827,222.177-510.992,431.022-808.696
		c208.843-297.703,94.975-377.7,94.975-377.7v0.261c74.307,63.33-88.53,264.391-201.619,390.769
		c-151.084,168.841-271.043,710.956-839.807,813.147c0,0-1796.983,193.833-2163.097-217.83
		c99.717,131.249,360.124,288.697,554.574,360.01c90.857,33.32,550.081,134.285,995.867,137.805
		C2553.838,3038.625,2588.211,3038.318,2622.328,3037.35z"/>
	<path style="fill:#F15A29;" d="M3132.039,2758.369c568.764-102.191,688.723-644.307,839.807-813.147
		c113.089-126.377,275.926-327.438,201.619-390.769c-24.967-21.272-76.674-27.027-166.079-9.139
		c-25.063,5.013-49.067,13.076-72.051,23.749c-211.407,98.165-336.528,417.201-406.881,616.533
		c-30.478,86.352-50.677,150.239-63.16,163.972c-44.426,48.883-66.65,8.89-66.65,8.89
		c-115.517,4.454-1141.962-44.438-1141.962-44.438c-297.705,208.831-559.873-537.65-902.021-804.256
		c-342.147-266.605-519.88-57.761-577.64,208.846c-57.759,266.604,142.194,742.04,142.194,742.04
		c10.973,28.926,27.961,55.419,49.727,79.891C1335.056,2952.202,3132.039,2758.369,3132.039,2758.369z"/>
	<polygon points="3670.666,4306.668 3719.469,4320.193 3720,4338.668 3672.666,4326.668 	"/>
	<polygon style="fill:#A7A9AC;" points="3720,4338.668 3737.667,4320 3737.379,4301.504 3719.469,4320.193 	"/>
	<polygon style="fill:#0B0B0A;" points="1508.149,4336.83 1509.5,4349.667 1551.833,4337.667 1550.667,4325 	"/>
	<polygon style="fill:#0B0B0A;" points="1717.381,3747.054 1717.667,3755 1738.667,3760.333 1739,3753 	"/>
</g>
</svg>
