<svg width="18" height="18" viewBox="0 0 18 18" fill="none" xmlns="http://www.w3.org/2000/svg">
<g clip-path="url(#clip0_4003_6443)">
<path d="M9.86261 17.4604C14.8099 17.0105 18.4343 12.858 17.958 8.18559C17.4816 3.51313 13.0848 0.09008 8.13752 0.539986C3.19021 0.989893 -0.434198 5.14239 0.0421735 9.81485C0.518545 14.4873 4.91531 17.9104 9.86261 17.4604Z" fill="url(#paint0_radial_4003_6443)"/>
<path d="M6.34739 8.20992C6.20209 9.67159 5.29175 10.3992 4.60781 9.6001C3.7191 8.56225 4.27666 6.32444 5.44787 6.22742C5.68508 6.24337 5.82025 6.31869 6.00272 6.53826C5.53437 7.29526 5.41543 7.67185 5.43165 7.73568C5.55127 7.70057 5.90067 7.50398 6.30144 7.24611C6.33185 7.40441 6.39538 7.73376 6.34807 8.21056" fill="#242424"/>
<path d="M13.6119 8.20983C13.6206 9.50937 12.7279 10.3423 12.0189 9.69447C11.1093 8.86343 11.1485 6.32562 12.3352 6.22668C12.5799 6.242 12.7421 6.32051 12.9773 6.53753C12.6752 7.64112 12.6927 7.68452 12.713 7.73494C12.715 7.73431 12.9671 7.64431 13.4267 7.24538C13.4855 7.4024 13.6078 7.72984 13.6112 8.20983" fill="#242424"/>
<path d="M12.909 12.4646C12.9023 12.4767 12.7448 12.7608 12.4359 12.7499C12.2393 12.7269 12.1203 12.6803 11.946 12.5584C8.74388 14.1982 5.26066 12.732 5.44381 11.9757C5.48842 11.7912 5.71955 11.631 6.03854 11.8116C7.67945 12.7403 9.77655 12.7895 11.5107 11.9386C11.237 11.0572 11.8696 11.0112 11.9426 11.0087C12.0271 11.0163 12.1433 11.0278 12.2312 11.1248C12.4015 11.3131 12.2967 11.5767 12.4298 11.7746C12.5474 11.9495 12.8117 11.9214 12.9286 12.0976C12.9671 12.155 12.9955 12.3057 12.909 12.4646Z" fill="#242424"/>
</g>
<defs>
<radialGradient id="paint0_radial_4003_6443" cx="0" cy="0" r="1" gradientUnits="userSpaceOnUse" gradientTransform="translate(6.73838 2.35678) rotate(3.3249) scale(17.5978 16.6269)">
<stop stop-color="#FFFDF5"/>
<stop offset="0.18" stop-color="#FFD540"/>
<stop offset="0.87" stop-color="#DF7612"/>
</radialGradient>
<clipPath id="clip0_4003_6443">
<rect width="18" height="17" fill="white" transform="translate(0 0.5)"/>
</clipPath>
</defs>
</svg>
