<svg width="225" height="490" viewBox="0 0 225 490" fill="none" xmlns="http://www.w3.org/2000/svg">
<rect x="0.5" y="0.5" width="23.6154" height="43" rx="5.5" transform="matrix(-4.37114e-08 1 1 4.37114e-08 90.5 7.38458)" fill="#0038AA" stroke="white"/>
<rect x="0.5" y="0.5" width="13.7692" height="29.8" rx="6.88461" transform="matrix(-4.37114e-08 1 1 4.37114e-08 97.1 2.18557e-08)" fill="#0038AA" stroke="white"/>
<rect x="0.5" y="-0.5" width="22.8462" height="43" rx="5.5" transform="matrix(1 1.74846e-07 1.74846e-07 -1 7.15381 83)" fill="#0038AA" stroke="white"/>
<rect x="0.5" y="-0.5" width="13.3077" height="29.8" rx="6.65384" transform="matrix(1 1.74846e-07 1.74846e-07 -1 8.74228e-08 76.4)" fill="#0038AA" stroke="white"/>
<rect x="0.5" y="-0.5" width="22.8462" height="43" rx="5.5" transform="matrix(1 1.74846e-07 1.74846e-07 -1 7.15381 174.5)" fill="#0038AA" stroke="white"/>
<rect x="0.5" y="-0.5" width="13.3077" height="29.8" rx="6.65384" transform="matrix(1 1.74846e-07 1.74846e-07 -1 8.74228e-08 167.9)" fill="#0038AA" stroke="white"/>
<rect x="0.5" y="-0.5" width="22.8462" height="43" rx="5.5" transform="matrix(1 1.74846e-07 1.74846e-07 -1 7.15381 266)" fill="#0038AA" stroke="white"/>
<rect x="0.5" y="-0.5" width="13.3077" height="29.8" rx="6.65384" transform="matrix(1 1.74846e-07 1.74846e-07 -1 8.74228e-08 259.4)" fill="#0038AA" stroke="white"/>
<rect x="0.5" y="-0.5" width="22.8462" height="43" rx="5.5" transform="matrix(1 1.74846e-07 1.74846e-07 -1 7.15381 357.5)" fill="#0038AA" stroke="white"/>
<rect x="0.5" y="-0.5" width="13.3077" height="29.8" rx="6.65384" transform="matrix(1 1.74846e-07 1.74846e-07 -1 8.74228e-08 350.9)" fill="#0038AA" stroke="white"/>
<rect x="0.5" y="-0.5" width="22.8462" height="43" rx="5.5" transform="matrix(1 1.74846e-07 1.74846e-07 -1 7.15381 449)" fill="#0038AA" stroke="white"/>
<rect x="0.5" y="-0.5" width="13.3077" height="29.8" rx="6.65384" transform="matrix(1 1.74846e-07 1.74846e-07 -1 8.74228e-08 442.4)" fill="#0038AA" stroke="white"/>
<rect x="39" y="40" width="147" height="410" rx="16" fill="#D9D9D9"/>
<rect x="-0.5" y="0.5" width="22.8462" height="43" rx="5.5" transform="matrix(-1 0 0 1 216.846 40)" fill="#0038AA" stroke="white"/>
<rect x="-0.5" y="0.5" width="13.3077" height="29.8" rx="6.65385" transform="matrix(-1 0 0 1 224 46.6)" fill="#0038AA" stroke="white"/>
<rect x="-0.5" y="0.5" width="22.8462" height="43" rx="5.5" transform="matrix(-1 0 0 1 216.846 131.5)" fill="#0038AA" stroke="white"/>
<rect x="-0.5" y="0.5" width="13.3077" height="29.8" rx="6.65385" transform="matrix(-1 0 0 1 224 138.1)" fill="#0038AA" stroke="white"/>
<rect x="-0.5" y="0.5" width="22.8462" height="43" rx="5.5" transform="matrix(-1 0 0 1 216.846 223)" fill="#0038AA" stroke="white"/>
<rect x="-0.5" y="0.5" width="13.3077" height="29.8" rx="6.65385" transform="matrix(-1 0 0 1 224 229.6)" fill="#0038AA" stroke="white"/>
<rect x="-0.5" y="0.5" width="22.8462" height="43" rx="5.5" transform="matrix(-1 0 0 1 216.846 314.5)" fill="#0038AA" stroke="white"/>
<rect x="-0.5" y="0.5" width="13.3077" height="29.8" rx="6.65385" transform="matrix(-1 0 0 1 224 321.1)" fill="#0038AA" stroke="white"/>
<rect x="-0.5" y="0.5" width="22.8462" height="43" rx="5.5" transform="matrix(-1 0 0 1 216.846 406)" fill="#0038AA" stroke="white"/>
<rect x="-0.5" y="0.5" width="13.3077" height="29.8" rx="6.65385" transform="matrix(-1 0 0 1 224 412.6)" fill="#0038AA" stroke="white"/>
<g filter="url(#filter0_d_4003_4533)">
<path d="M112.219 277C133.326 277 150.437 259.869 150.437 238.737C150.437 217.604 133.326 200.473 112.219 200.473C91.1111 200.473 74 217.604 74 238.737C74 259.869 91.1111 277 112.219 277Z" fill="url(#paint0_radial_4003_4533)"/>
<path style="mix-blend-mode:multiply" d="M134.338 207.529C132.89 209.521 130.62 211.687 127.269 212.589C129.528 213.864 133.54 217.433 130.477 220.734C132.633 222.639 131.225 225.811 127.301 229.708C134.784 225.552 137.873 225.504 140.267 225.819C140.415 224.422 144.703 224.152 148.302 226.094C145.665 218.547 140.732 212.079 134.34 207.529H134.338Z" fill="url(#paint1_linear_4003_4533)"/>
<path d="M113.363 253.593C113.569 252.247 115.292 251.191 116.156 252.109C117.017 253.027 115.054 254.006 113.363 253.593Z" fill="#242424"/>
<path d="M111.077 253.593C110.871 252.247 109.148 251.191 108.284 252.109C107.423 253.027 109.386 254.006 111.077 253.593Z" fill="#242424"/>
<path d="M92.6284 240.26C88.0069 240.533 87.3464 246.699 90.6546 249.48C93.8518 252.167 97.9949 249.858 97.6937 245.557C97.4929 242.686 95.1729 240.26 92.6284 240.26Z" fill="#242424"/>
<path d="M131.727 240.26C126.981 240.536 125.184 246.702 128.036 249.48C130.932 252.302 135.754 249.554 135.852 245.025C135.91 242.353 134.097 240.26 131.727 240.26Z" fill="#242424"/>
<path d="M128.45 255.567C127.637 255.21 126.632 255.181 126.239 255.186C120.685 255.392 115.532 258.437 109.817 257.493C106.712 256.979 103.726 255.929 100.619 255.424C99.8419 255.297 98.024 255.003 96.5945 255.347C94.0341 255.964 92.853 259.178 96.4677 262.358C97.9104 263.625 99.3082 264.178 99.982 264.442C102.109 258.908 120.97 259.165 123.726 263.707C123.879 263.958 124.392 264.162 124.474 264.442C130.784 261.948 131.587 256.945 128.453 255.567H128.45Z" fill="#242424"/>
<path d="M112.208 259.876C102.624 260.051 100.431 262.813 99.9792 264.442C100.502 264.622 101.475 264.953 104.154 264.953C107.129 264.953 110.004 263.876 113.003 264.138C115.651 264.368 118.256 265.011 120.936 264.945C123.158 264.889 123.855 264.651 124.471 264.442C123.2 260.096 114.034 259.876 112.211 259.876" fill="url(#paint2_linear_4003_4533)"/>
<path d="M131.613 233.435C127.261 233.53 122.524 241.766 123.166 242.924C123.887 244.229 133.68 237.517 133.975 236.475C134.126 235.94 133.288 233.509 131.613 233.435Z" fill="#242424"/>
<path d="M92.7419 233.435C90.9848 233.599 90.4352 235.835 90.4299 235.856C90.2872 236.491 90.2502 236.66 91.7458 237.882C94.1529 239.848 100.273 243.567 101.15 242.924C101.456 240.39 96.1743 233.282 92.7393 233.435" fill="#242424"/>
<path style="mix-blend-mode:overlay" opacity="0.5" d="M109.735 236.374C122.104 229.433 128.651 216.75 124.36 208.039C120.069 199.32 106.564 197.881 94.1926 204.814C81.8265 211.751 75.2762 224.441 79.5647 233.152C83.8585 241.866 97.366 243.308 109.735 236.374Z" fill="url(#paint3_radial_4003_4533)"/>
<path style="mix-blend-mode:overlay" opacity="0.3" d="M144.265 252.21C148.495 254.31 145.512 260.919 137.593 266.982C129.682 273.042 119.839 276.257 115.601 274.167C111.373 272.072 114.359 265.463 122.273 259.397C130.192 253.337 140.037 250.12 144.265 252.21Z" fill="url(#paint4_radial_4003_4533)"/>
</g>
<path d="M128.623 199.103C128.623 199.103 128.692 207.177 122.697 211.111C125.252 211.751 130.196 214.216 128.314 218.494C130.967 219.806 130.624 223.462 128.111 228.605C133.934 222.153 136.862 221.192 139.24 220.811C138.825 218.772 146.684 216.597 151.44 221.05C153.818 218.565 160.263 216.288 167.019 219.325C163.814 216.322 165.434 208.283 169.363 206.627C161.814 204.764 161.021 199.828 162.469 196C155.369 201.865 147.83 201.246 143.859 196.759C139.93 202.452 133.181 202.942 128.626 199.106L128.623 199.103Z" fill="#242424"/>
<path d="M139.008 206.42C139.457 206.825 139.684 207.373 139.684 208.068C139.684 208.269 139.668 208.449 139.639 208.611L138.854 213.616H137.758L137.932 212.981H137.724C137.615 213.211 137.443 213.396 137.211 213.531C136.976 213.666 136.706 213.732 136.397 213.732C135.982 213.732 135.665 213.616 135.446 213.38C135.227 213.145 135.116 212.809 135.116 212.37C135.116 212.269 135.131 212.105 135.16 211.873L135.369 210.555C135.47 209.963 135.676 209.502 135.988 209.18C136.299 208.857 136.701 208.695 137.195 208.695C137.525 208.695 137.787 208.769 137.975 208.915C138.162 209.06 138.265 209.262 138.281 209.515H138.5L138.442 208.706L138.453 208.613C138.477 208.484 138.487 208.362 138.487 208.256C138.487 207.833 138.355 207.494 138.088 207.24C137.824 206.986 137.449 206.859 136.963 206.859C136.307 206.859 135.771 207.061 135.345 207.465C134.923 207.87 134.653 208.439 134.537 209.169L133.913 213.087C133.882 213.248 133.868 213.423 133.868 213.608C133.868 214.156 134.03 214.581 134.352 214.886C134.674 215.19 135.137 215.343 135.737 215.343H136.545L136.371 216.441H135.562C134.645 216.441 133.934 216.208 133.427 215.743C132.92 215.277 132.666 214.626 132.666 213.796C132.666 213.595 132.685 213.359 132.724 213.089L133.337 209.172C133.506 208.132 133.929 207.312 134.6 206.717C135.274 206.119 136.114 205.82 137.124 205.82C137.932 205.82 138.561 206.021 139.01 206.426L139.008 206.42ZM138.136 210.552C138.152 210.484 138.16 210.383 138.16 210.251C138.16 209.796 137.943 209.568 137.512 209.568C136.989 209.568 136.675 209.896 136.566 210.55L136.357 211.867C136.334 211.984 136.323 212.087 136.323 212.179C136.323 212.627 136.545 212.849 136.992 212.849C137.261 212.849 137.473 212.767 137.626 212.605C137.779 212.444 137.885 212.182 137.938 211.82L138.133 210.547L138.136 210.552Z" fill="white"/>
<path d="M140.976 214.365H139.925L140.628 212.261H139.692L139.853 211.267H140.96L141.711 209.023H140.58L140.731 208.029H142.046L142.749 205.926H143.801L143.085 208.029H144.702L145.405 205.926H146.456L145.74 208.029H146.686L146.525 209.023H145.418L144.668 211.267H145.799L145.648 212.261H144.332L143.627 214.365H142.575L143.28 212.261H141.677L140.974 214.365H140.976ZM142.765 209.026L142.015 211.269H143.619L144.369 209.026H142.765Z" fill="white"/>
<path d="M151.664 208.135C151.68 208.042 151.688 207.973 151.688 207.926C151.688 207.703 151.625 207.518 151.498 207.375C151.371 207.232 151.184 207.137 150.938 207.092L150.557 209.484L150.927 209.587C151.498 209.74 151.929 209.986 152.219 210.328C152.513 210.666 152.658 211.087 152.658 211.587C152.658 211.687 152.642 211.846 152.613 212.06C152.497 212.761 152.188 213.325 151.683 213.748C151.178 214.171 150.541 214.41 149.773 214.465L149.529 215.978H148.803L149.046 214.452C148.391 214.399 147.883 214.201 147.521 213.857C147.159 213.513 146.98 213.066 146.98 212.51C146.98 212.373 146.99 212.232 147.014 212.095H148.457C148.449 212.14 148.446 212.206 148.446 212.291C148.446 212.521 148.512 212.714 148.647 212.867C148.782 213.021 148.98 213.126 149.241 213.179L149.646 210.682L149.471 210.637C148.924 210.484 148.502 210.224 148.2 209.862C147.899 209.5 147.751 209.068 147.751 208.568C147.751 208.436 147.762 208.304 147.786 208.164C147.886 207.508 148.169 206.973 148.639 206.558C149.109 206.143 149.696 205.899 150.404 205.83L150.613 204.537H151.339L151.131 205.82C151.762 205.873 152.254 206.069 152.608 206.404C152.962 206.74 153.139 207.18 153.139 207.727C153.139 207.859 153.128 207.992 153.105 208.132H151.662L151.664 208.135ZM149.392 208.92C149.5 209.082 149.656 209.201 149.865 209.277L150.211 207.116C149.905 207.185 149.662 207.325 149.49 207.537C149.315 207.748 149.231 208.016 149.231 208.341C149.231 208.566 149.284 208.756 149.392 208.918V208.92ZM150.972 211.275C150.835 211.095 150.645 210.968 150.407 210.899L150.338 210.875L149.968 213.198C150.338 213.145 150.631 213.002 150.851 212.769C151.07 212.539 151.181 212.254 151.181 211.915C151.181 211.669 151.112 211.455 150.972 211.275Z" fill="white"/>
<path d="M153.94 214.365H152.901L160.186 205.928H161.224L153.94 214.365ZM154.431 209.402C154.167 209.174 154.032 208.859 154.032 208.46C154.032 208.415 154.04 208.322 154.056 208.182L154.183 207.431C154.259 206.952 154.476 206.574 154.83 206.293C155.184 206.013 155.607 205.873 156.101 205.873C156.548 205.873 156.902 205.986 157.163 206.214C157.425 206.442 157.557 206.751 157.557 207.145C157.557 207.198 157.549 207.296 157.533 207.434L157.417 208.185C157.34 208.664 157.124 209.042 156.769 209.322C156.415 209.603 155.987 209.743 155.488 209.743C155.049 209.743 154.698 209.629 154.431 209.402ZM156.386 208.182L156.513 207.431C156.521 207.391 156.524 207.336 156.524 207.256C156.524 206.926 156.336 206.759 155.958 206.759C155.528 206.759 155.274 206.981 155.197 207.428L155.081 208.18C155.073 208.225 155.07 208.288 155.07 208.365C155.07 208.687 155.258 208.851 155.636 208.851C156.067 208.851 156.318 208.629 156.386 208.182ZM156.965 214.076C156.703 213.846 156.571 213.537 156.571 213.15C156.571 213.097 156.579 213 156.595 212.862L156.722 212.111C156.799 211.64 157.013 211.264 157.361 210.978C157.71 210.693 158.136 210.55 158.638 210.55C159.084 210.55 159.441 210.666 159.705 210.896C159.969 211.127 160.104 211.439 160.104 211.833C160.104 211.894 160.096 211.986 160.08 212.111L159.953 212.862C159.877 213.333 159.66 213.708 159.306 213.994C158.952 214.28 158.524 214.423 158.025 214.423C157.578 214.423 157.224 214.306 156.962 214.076H156.965ZM158.69 213.365C158.817 213.261 158.899 213.092 158.939 212.862L159.055 212.111C159.063 212.071 159.066 212.015 159.066 211.936C159.066 211.605 158.878 211.439 158.5 211.439C158.07 211.439 157.816 211.664 157.739 212.108L157.623 212.859C157.615 212.899 157.612 212.955 157.612 213.034C157.612 213.357 157.8 213.518 158.178 213.518C158.395 213.518 158.564 213.465 158.69 213.362V213.365Z" fill="white"/>
<rect x="-0.5" y="-0.5" width="23.6154" height="43" rx="5.5" transform="matrix(1.19249e-08 -1 -1 -1.19249e-08 133.5 481.615)" fill="#0038AA" stroke="white"/>
<rect x="-0.5" y="-0.5" width="13.7692" height="29.8" rx="6.88461" transform="matrix(1.19249e-08 -1 -1 -1.19249e-08 126.9 489)" fill="#0038AA" stroke="white"/>
<defs>
<filter id="filter0_d_4003_4533" x="70" y="200.427" width="84.4373" height="84.573" filterUnits="userSpaceOnUse" color-interpolation-filters="sRGB">
<feFlood flood-opacity="0" result="BackgroundImageFix"/>
<feColorMatrix in="SourceAlpha" type="matrix" values="0 0 0 0 0 0 0 0 0 0 0 0 0 0 0 0 0 0 127 0" result="hardAlpha"/>
<feOffset dy="4"/>
<feGaussianBlur stdDeviation="2"/>
<feComposite in2="hardAlpha" operator="out"/>
<feColorMatrix type="matrix" values="0 0 0 0 0 0 0 0 0 0 0 0 0 0 0 0 0 0 0.25 0"/>
<feBlend mode="normal" in2="BackgroundImageFix" result="effect1_dropShadow_4003_4533"/>
<feBlend mode="normal" in="SourceGraphic" in2="effect1_dropShadow_4003_4533" result="shape"/>
</filter>
<radialGradient id="paint0_radial_4003_4533" cx="0" cy="0" r="1" gradientUnits="userSpaceOnUse" gradientTransform="translate(100.785 209.51) scale(74.7699 74.8576)">
<stop stop-color="#FFCAAB"/>
<stop offset="0.2" stop-color="#FF7C2C"/>
<stop offset="0.86" stop-color="#C40606"/>
<stop offset="1" stop-color="#FF4E0E"/>
</radialGradient>
<linearGradient id="paint1_linear_4003_4533" x1="135.209" y1="218.142" x2="138.059" y2="228.854" gradientUnits="userSpaceOnUse">
<stop stop-color="#AC2F2F"/>
<stop offset="0.13" stop-color="#AE2E2E" stop-opacity="0.97"/>
<stop offset="0.28" stop-color="#B52D2D" stop-opacity="0.88"/>
<stop offset="0.46" stop-color="#C22C2C" stop-opacity="0.73"/>
<stop offset="0.64" stop-color="#D32929" stop-opacity="0.53"/>
<stop offset="0.83" stop-color="#E82626" stop-opacity="0.27"/>
<stop offset="1" stop-color="#FF2424" stop-opacity="0"/>
</linearGradient>
<linearGradient id="paint2_linear_4003_4533" x1="99.9792" y1="262.416" x2="124.471" y2="262.416" gradientUnits="userSpaceOnUse">
<stop stop-color="#FF94A8"/>
<stop offset="1" stop-color="#F23C5E"/>
</linearGradient>
<radialGradient id="paint3_radial_4003_4533" cx="0" cy="0" r="1" gradientUnits="userSpaceOnUse" gradientTransform="translate(89.6865 195.025) rotate(63.7866) scale(17.6321 25.6284)">
<stop stop-color="white"/>
<stop offset="0.1" stop-color="white" stop-opacity="0.85"/>
<stop offset="0.29" stop-color="white" stop-opacity="0.59"/>
<stop offset="0.47" stop-color="white" stop-opacity="0.38"/>
<stop offset="0.63" stop-color="white" stop-opacity="0.22"/>
<stop offset="0.78" stop-color="white" stop-opacity="0.1"/>
<stop offset="0.91" stop-color="white" stop-opacity="0.03"/>
<stop offset="1" stop-color="white" stop-opacity="0"/>
</radialGradient>
<radialGradient id="paint4_radial_4003_4533" cx="0" cy="0" r="1" gradientUnits="userSpaceOnUse" gradientTransform="translate(380.397 74.6045) rotate(-37.4424) scale(18.0794 7.63838)">
<stop stop-color="white"/>
<stop offset="0.1" stop-color="white" stop-opacity="0.85"/>
<stop offset="0.29" stop-color="white" stop-opacity="0.59"/>
<stop offset="0.47" stop-color="white" stop-opacity="0.38"/>
<stop offset="0.63" stop-color="white" stop-opacity="0.22"/>
<stop offset="0.78" stop-color="white" stop-opacity="0.1"/>
<stop offset="0.91" stop-color="white" stop-opacity="0.03"/>
<stop offset="1" stop-color="white" stop-opacity="0"/>
</radialGradient>
</defs>
</svg>
